<svg version="1.1" id="Layer_1" xmlns="http://www.w3.org/2000/svg" xmlns:xlink="http://www.w3.org/1999/xlink" x="0px" y="0px"
	 width="100%" viewBox="0 0 76 76" enable-background="new 0 0 76 76" xml:space="preserve">
<path fill="#303955" opacity="1.000000" stroke="none" 
	d="
M45.000000,77.000000 
	C43.611004,77.000000 42.222004,77.000000 40.346577,76.637527 
	C38.465752,75.802773 37.088768,75.269150 35.674263,74.867744 
	C22.060127,71.004211 9.879698,57.708359 9.218229,44.284546 
	C8.508816,29.887735 9.020954,15.430734 9.000000,1.000000 
	C9.444336,1.000000 9.888672,1.000000 10.819464,1.371998 
	C30.445986,4.221074 43.502190,16.668365 45.634274,35.058567 
	C46.359661,41.315342 45.989830,47.699097 46.022274,54.448750 
	C45.986702,57.132881 46.049309,59.393089 46.046688,62.134605 
	C45.654308,67.410606 45.327156,72.205307 45.000000,77.000000 
z"/>
<path fill="#FDFDFC" opacity="1.000000" stroke="none" 
	d="
M45.468658,77.000000 
	C45.327156,72.205307 45.654308,67.410606 46.274929,62.411087 
	C46.986240,62.924095 47.349178,63.681232 47.830509,64.353622 
	C52.128422,70.357521 59.518734,71.434158 64.740829,66.836708 
	C69.612206,62.548000 69.825630,54.917404 65.200195,50.412453 
	C60.310585,45.650219 53.166668,46.120541 48.451260,51.504478 
	C47.697601,52.364986 46.898525,53.185707 46.120445,54.024826 
	C45.989830,47.699097 46.359661,41.315342 45.634274,35.058567 
	C43.502190,16.668365 30.445986,4.221074 11.152960,1.371998 
	C32.944546,1.000000 54.889088,1.000000 76.916817,1.000000 
	C76.916817,26.213774 76.916817,51.427914 76.916817,77.000000 
	C66.648521,77.000000 56.292919,77.000000 45.468658,77.000000 
M68.092964,25.407181 
	C69.391937,20.764885 68.141975,16.837862 64.551521,13.737602 
	C61.268692,10.902969 57.475639,10.217263 53.383453,11.791632 
	C48.666603,13.606325 45.676289,18.308222 46.103668,23.126146 
	C46.541683,28.063990 50.253719,32.247372 55.063671,33.223858 
	C60.444641,34.316269 64.707451,31.958698 68.092964,25.407181 
z"/>
<path fill="#FBFBFC" opacity="1.000000" stroke="none" 
	d="
M8.505266,1.000000 
	C9.020954,15.430734 8.508816,29.887735 9.218229,44.284546 
	C9.879698,57.708359 22.060127,71.004211 35.674263,74.867744 
	C37.088768,75.269150 38.465752,75.802773 39.930073,76.637527 
	C27.051941,77.000000 14.103883,77.000000 1.077912,77.000000 
	C1.077912,51.666832 1.077912,26.333447 1.077912,1.000000 
	C3.362526,1.000000 5.686530,1.000000 8.505266,1.000000 
z"/>
<path fill="#D6E259" opacity="1.000000" stroke="none" 
	d="
M46.022270,54.448746 
	C46.898525,53.185707 47.697601,52.364986 48.451260,51.504478 
	C53.166668,46.120541 60.310585,45.650219 65.200195,50.412453 
	C69.825630,54.917404 69.612206,62.548000 64.740829,66.836708 
	C59.518734,71.434158 52.128422,70.357521 47.830509,64.353622 
	C47.349178,63.681232 46.986240,62.924095 46.340153,61.929779 
	C46.049309,59.393089 45.986702,57.132881 46.022270,54.448746 
z"/>
<path fill="#72D57F" opacity="1.000000" stroke="none" 
	d="
M67.984726,25.772419 
	C64.707451,31.958698 60.444641,34.316269 55.063671,33.223858 
	C50.253719,32.247372 46.541683,28.063990 46.103668,23.126146 
	C45.676289,18.308222 48.666603,13.606325 53.383453,11.791632 
	C57.475639,10.217263 61.268692,10.902969 64.551521,13.737602 
	C68.141975,16.837862 69.391937,20.764885 67.984726,25.772419 
z"/>
</svg>